<svg version="1.1" id="レイヤー_1" xmlns="http://www.w3.org/2000/svg" xmlns:xlink="http://www.w3.org/1999/xlink" x="0" y="0" viewBox="0 0 126.4 54.2" xml:space="preserve"><style type="text/css">.st1{fill:#0b308e}</style><g><g><g><polygon points="121,0 102.5,32.1 107.6,32.1 126.1,0" fill="#00a6e9"/><polygon class="st1" points="102.5,32.1 121,0 100.4,0 81.8,32.1"/></g></g><g><path class="st1" d="M36.2 10.7c0-.3.3-.5.6-.5s.5.2.6.5l5.9 21.5h9.6l5-27.9h-4.2l-3.9 21.2c0 .3-.3.5-.6.5s-.5-.2-.6-.5L42.7 4.3h-9.6l-5 27.9h4.2l3.9-21.5zM19.8 22.6L19 10.1c0-.3-.2-.6-.5-.6-.3-.2-.6.2-.8.3L5.2 32.1H.4L16.2 4.3h9.2l1.8 27.9h-6.9l-.2-3c0-.6-.5-1.2-1.2-1.2H8.5l2.4-4.2h7.8c.7-.1 1.1-.6 1.1-1.2zm52.4 0l-1.1-12.3c0-.3-.3-.6-.6-.6-.2 0-.5.2-.6.3L58.7 32.1H54L68.3 4.3h9.3L80 32.1h-6.9l-.3-3c0-.6-.5-1.2-1.2-1.2h-9.8l2.1-4.2h7.2c.7 0 1.1-.5 1.1-1.1z"/></g></g><g><path class="st1" d="M85.8 48.3c0 1.6-.6 2.1-1.6 2.1-.4 0-.8-.1-1.2-.2l-.3 1.4c.5.2 1.2.3 1.7.3 1.9 0 3.2-.9 3.2-3.5v-6.1h-1.8v6z"/><rect x=".6" y="42.2" class="st1" width="1.7" height="9.4"/><path class="st1" d="M7.9 44.7c-1.1 0-1.9.6-2.2 1.2l-.1-1H4.1c0 .6.1 1.2.1 2v4.8h1.7v-4c0-.2 0-.4.1-.5.2-.5.7-1 1.3-1 .9 0 1.3.7 1.3 1.7v3.8h1.7v-4c0-2.2-1.2-3-2.4-3zm6.7 2.9c-.9-.3-1.2-.5-1.2-.9s.3-.7 1-.7c.6 0 1.2.2 1.4.4l.3-1.2c-.4-.2-1.1-.4-1.8-.4-1.6 0-2.6.9-2.6 2.1 0 .8.5 1.5 1.9 2 .8.3 1.1.5 1.1 1 0 .4-.3.8-1.1.8-.6 0-1.4-.3-1.7-.5l-.3 1.3c.5.3 1.2.5 2.1.5 1.8 0 2.8-.9 2.8-2.1-.1-1.3-.6-1.9-1.9-2.3zm7.1-2.9c-1 0-1.8.4-2.3 1.2l-.1-1h-1.5c0 .6.1 1.4.1 2.3v7h1.7V51c.3.5 1.1.9 1.9.9 1.6 0 3.1-1.2 3.1-3.6-.1-2.3-1.4-3.6-2.9-3.6zm-.6 5.8c-.7 0-1.3-.5-1.5-1.2v-1.5c0-.1 0-.3.1-.4.2-.8.8-1.3 1.5-1.3 1.1 0 1.7 1 1.7 2.2-.1 1.3-.7 2.2-1.8 2.2zm5.8-8.5c-.6 0-1 .4-1 .9s.4.9.9.9c.6 0 1-.4 1-.9s-.3-.9-.9-.9z"/><rect x="26" y="44.8" class="st1" width="1.7" height="6.8"/><path class="st1" d="M31.2 46.1l-.2-1.3h-1.5c0 .6.1 1.3.1 2.2v4.6h1.7v-4c.2-.8.7-1.3 1.5-1.3h.5v-1.6h-.4c-.6 0-1.4.5-1.7 1.4zm12.3-3l-1.7.5v1.3h-1v1.3h1v3.2c0 .9.2 1.5.5 1.9s.8.6 1.5.6c.5 0 1-.1 1.2-.2v-1.3c-.2.1-.4.1-.7.1-.7 0-.9-.4-.9-1.3v-3H45v-1.3h-1.6v-1.8h.1z"/><rect x="46.6" y="44.8" class="st1" width="1.7" height="6.8"/><path class="st1" d="M47.5 42c-.6 0-1 .4-1 .9s.4.9 1 .9 1-.4 1-.9c-.1-.5-.4-.9-1-.9zm5.5 2.7c-2.1 0-3.5 1.4-3.5 3.6s1.5 3.5 3.4 3.5c1.7 0 3.5-1.1 3.5-3.6 0-2.1-1.3-3.5-3.4-3.5zm0 5.9c-1 0-1.7-1-1.7-2.3 0-1.1.5-2.3 1.7-2.3s1.6 1.2 1.6 2.3c.1 1.3-.6 2.3-1.6 2.3zm8.3-5.9c-1.1 0-1.9.6-2.2 1.2l-.1-1h-1.5c0 .6.1 1.2.1 2v4.8h1.7v-4c0-.2 0-.4.1-.5.2-.5.7-1 1.3-1 .9 0 1.3.7 1.3 1.7v3.8h1.7v-4c.1-2.2-1.2-3-2.4-3zm9.9 0c-2.1 0-3.5 1.4-3.5 3.6s1.5 3.5 3.4 3.5c1.7 0 3.5-1.1 3.5-3.6 0-2.1-1.4-3.5-3.4-3.5zm0 5.9c-1 0-1.7-1-1.7-2.3 0-1.1.5-2.3 1.7-2.3s1.6 1.2 1.6 2.3c0 1.3-.7 2.3-1.6 2.3zm6-8.4c-.6.6-.8 1.4-.8 2.3v.3h-.9v1.3h.9v5.5h1.7v-5.5h1.5v-1.3h-1.5v-.3c0-.8.3-1.5 1.1-1.5.3 0 .5.1.7.1l.1-1.3c-.3-.1-.6-.2-1.1-.2-.5 0-1.2.2-1.7.6zm26.6.7c-.6-.5-1.5-.8-2.8-.8-1.2 0-2.1.1-2.8.2v9.3h1.7v-3.4c.2.1.6.1.9.1 1.2 0 2.3-.3 3-1 .5-.5.8-1.3.8-2.2.1-.9-.2-1.7-.8-2.2zm-2.9 4.1c-.4 0-.7 0-.9-.1v-3.3c.2 0 .6-.1 1.1-.1 1.2 0 2 .6 2 1.7-.1 1-.9 1.8-2.2 1.8z"/><polygon class="st1" points="119.8,42.2 119.8,49.1 116,42.2 113.9,42.2 113.9,51.6 115.6,51.6 115.6,44.5 119.6,51.6 121.5,51.6 121.5,42.2"/><path class="st1" d="M91.7 42.2l-3.3 9.4h1.8s.4-1.1.8-2.5h3.5c.4 1.4.8 2.5.8 2.5h1.9l-3.3-9.4h-2.2zm-.2 5.6c.6-1.9 1.2-3.9 1.3-4.1.1.3.7 2.2 1.3 4.1h-2.6zm15.9-5.6l-3.3 9.4h1.8s.4-1.1.8-2.5h3.5c.4 1.4.8 2.5.8 2.5h1.9l-3.3-9.4h-2.2zm-.2 5.6c.6-1.9 1.2-3.9 1.3-4.1.1.3.7 2.2 1.3 4.1h-2.6z"/></g><g><defs><rect id="SVGID_1_" x="33.8" y="44.7" width="5.865" height="7.108"/></defs><clipPath id="SVGID_2_"><use xlink:href="#SVGID_1_" overflow="visible"/></clipPath><path d="M39.563 50.052v-2.446c0-1.495-.628-2.875-2.806-2.875-1.075 0-1.955.293-2.458.599l.335 1.116c.46-.292 1.16-.5 1.829-.5.706 0 1.06.255 1.232.556.121.211.152.445.152.629v.114c-2.516-.014-4.037.864-4.037 2.569 0 1.033.767 2.025 2.135 2.025.896 0 1.608-.378 2.014-.909H38l.125.756h1.55c-.084-.421-.112-1.021-.112-1.634zm-1.675-.756c0 .128 0 .25-.041.378a1.412 1.412 0 01-1.355.934c-.547 0-.979-.306-.979-.977 0-1.034 1.161-1.284 2.375-1.27v.935z" clip-path="url(#SVGID_2_)" fill="#0b308e"/></g></svg>