<svg width="24" height="24" viewBox="0 0 24 24" fill="none" xmlns="http://www.w3.org/2000/svg">
<path d="M5 21V3H19V21L12 17.6792L5 21Z" fill="#727FC1"/>
<path fill-rule="evenodd" clip-rule="evenodd" d="M4 2.81081C4 2.36301 4.37052 2 4.82759 2H19.1724C19.6295 2 20 2.36301 20 2.81081V21.1892C20 21.4682 19.8536 21.7275 19.6124 21.8759C19.3713 22.0242 19.0692 22.0407 18.8128 21.9194L12 18.6988L5.18723 21.9194C4.93078 22.0407 4.62871 22.0242 4.38755 21.8759C4.14639 21.7275 4 21.4682 4 21.1892V2.81081ZM5.65517 3.62162V19.8977L11.6404 17.0683C11.8676 16.9609 12.1324 16.9609 12.3596 17.0683L18.3448 19.8977V3.62162H5.65517Z" fill="#727FC1"/>
<path d="M12 5L13.1226 8.45492H16.7553L13.8164 10.5902L14.9389 14.0451L12 11.9098L9.06107 14.0451L10.1836 10.5902L7.24472 8.45492H10.8774L12 5Z" fill="#00146E"/>
</svg>
