<svg version="1.1" id="レイヤー_1" xmlns="http://www.w3.org/2000/svg" x="0" y="0" width="243" height="44" viewBox="0 0 243 44" xml:space="preserve"><style type="text/css">.st0,.st1{fill:#0c308e}.st1{fill-rule:evenodd;clip-rule:evenodd}</style><g id="Block" transform="translate(0 1338)"><g id="Group-42" transform="translate(0 190)"><g id="icon_season" transform="translate(130 79)"><path class="st0" d="M112.2-1577.9l-4.1-2.2 3-1.2c.4-.2.6-.6.4-1-.2-.4-.6-.6-1-.4l-4.2 1.7-3.3-1.8 3.3-1.3c.4-.2.6-.6.4-1-.2-.4-.6-.6-1-.4l-4.5 1.8-5.6-3 4.9-2.6c.1.2.2.4.4.5l4.8 1.9c.1 0 .2.1.3.1.3 0 .6-.2.7-.5.2-.4 0-.8-.4-1l-4.3-1.7 4.8-2.6 4.7 1.9c.1 0 .2.1.3.1.3 0 .6-.2.7-.5.2-.4 0-.8-.4-1l-3.6-1.4 3.7-2c.4-.2.5-.7.3-1s-.7-.5-1-.3l-4.4 2.4.7-3.5c.1-.4-.2-.8-.6-.9-.4-.1-.8.2-.9.6l-.9 4.7-4.1 2.2.7-3.7c.1-.4-.2-.8-.6-.9-.4-.1-.8.2-.9.6l-1 4.8v.2L95-1588v-5.4l3-2.3c.3-.2.4-.7.1-1.1-.2-.3-.7-.4-1-.1l-2.1 1.6v-4.8l3-2.3c.3-.2.4-.7.1-1.1-.2-.3-.7-.4-1-.1L95-1602v-3.9c0-.4-.3-.8-.8-.8s-.8.3-.8.8v4.6l-3.1-2.3c-.3-.2-.8-.2-1 .1-.2.3-.2.8.1 1.1l3.8 2.9h.2v4.8l-3.1-2.3c-.3-.2-.8-.2-1 .1-.2.3-.2.8.1 1.1l3.8 2.9h.2v4.7l-4.7-2.5v-.2l-1-4.8c-.1-.4-.5-.7-.9-.6-.4.1-.7.5-.6.9l.7 3.7-4.1-2.2-.9-4.7c-.1-.4-.5-.7-.9-.6-.4.1-.7.5-.6.9l.7 3.5-4.1-2.2c-.4-.2-.8-.1-1 .3-.2.4-.1.8.3 1l4.1 2.2-3 1.2c-.4.2-.6.6-.4 1 .1.3.4.5.7.5.1 0 .2 0 .3-.1l4.2-1.7 4.4 2.4-4.3 1.7c-.4.2-.6.6-.4 1 .1.3.4.5.7.5.1 0 .2 0 .3-.1l4.8-1.9c.2-.1.4-.3.4-.5l4.9 2.6-5.6 3-4.5-1.8c-.4-.2-.8 0-1 .4-.2.4 0 .8.4 1l3.3 1.3-3.6 2-4.2-1.7c-.4-.2-.8 0-1 .4-.2.4 0 .8.4 1l3 1.2-4.1 2.2c-.4.2-.5.7-.3 1 .1.3.4.4.7.4.1 0 .2 0 .4-.1l4.4-2.4-.7 3.5c-.1.4.2.8.6.9h.1c.3 0 .7-.2.7-.6l.9-4.7 4.1-2.2-.7 3.7c-.1.4.2.8.6.9h.1c.3 0 .7-.2.7-.6l1-4.8v-.2l4.7-2.5v6.6c-.1 0-.1 0-.2.1l-3.8 2.9c-.3.2-.4.7-.1 1 .1.2.4.3.6.3.2 0 .3 0 .4-.2l3.1-2.3v2.9c-.1 0-.1 0-.2.1l-3.8 2.9c-.3.2-.4.7-.1 1 .1.2.4.3.6.3.2 0 .3 0 .4-.2l3.1-2.3v4.6c0 .4.3.8.8.8s.8-.3.8-.8v-4.6l3.1 2.3c.1.1.3.2.4.2.2 0 .5-.1.6-.3.2-.3.2-.8-.1-1l-3.8-2.9c-.1 0-.1-.1-.2-.1v-2.9l3.1 2.3c.1.1.3.2.4.2.2 0 .5-.1.6-.3.2-.3.2-.8-.1-1l-3.8-2.9c-.1 0-.1-.1-.2-.1v-6.6l5.7 3.1.9 4.4c.1.4.4.6.7.6h.1c.4-.1.7-.5.6-.9l-.6-3.1 3 1.6.9 4.7c.1.4.4.6.7.6h.1c.4-.1.7-.5.6-.9l-.7-3.5 4.4 2.4c.1.1.2.1.4.1.3 0 .5-.1.7-.4.2-.3.1-.8-.3-1z"/><g id="Group-23" transform="translate(135.733 .104)"><path id="Stroke-3" class="st1" d="M-116.9-1597.6l4.2 1.4 4.4-10.8 4.5 10.8 4.2-1.4-3.4 9.8 6.6-5.5.3 3.7 9.8-.1-6.9 6.9 3.4 2.5-8.6 3 3.1 9c.1.4-.2.7-.6.5l-12.1-4.7-12.1 4.7c-.3.2-.7-.2-.6-.5l3.1-9-8.8-3 3.4-2.5-6.9-6.9 9.8.1.3-3.7 6.5 5.8-3.6-10.1z"/><path id="Path" class="st0" d="M-109.2-1563.5l-.4-.9.8-.3c.1-.1.2-.3.2-.7l-.1-7h1v7c0 .6-.1 1.3-.8 1.6l-.7.3z"/><polygon id="Path_1_" points="-97.8,-1584.1 -98.1,-1585.1 -107.7,-1581.3 -107.7,-1595.2 -108.8,-1595.2 -108.7,-1581.4 -118.1,-1585.3 -118.6,-1584.3 -109.1,-1580.4 -115.1,-1574.8 -114.4,-1574 -108.7,-1579.4 -108.7,-1572.2 -108.2,-1572.4 -107.6,-1572.2 -107.6,-1579.6 -101.7,-1574 -101,-1574.8 -107.1,-1580.4" fill="#fff"/></g><path id="Combined-Shape" class="st1" d="M-111.2-1582.6c.1 1.1.1 3.3-1.7 5.1-.4.4-.4 1 0 1.4.2.2.5.3.7.3.3 0 .5-.1.7-.3 2.2-2.1 2.5-4.6 2.4-6.2 2.7 3.2 3 8 .3 11.6-3.1 4.2-9.1 5.2-13.5 2.1-3.3-2.4-4.7-6.4-3.6-10.1.5.2.9.4 1.4.6 5.1 1.5 10.5-.4 13.3-4.5zm5.3-2.3c3.7-1.5 8.2-.3 10.6 3.2 2.9 4.2 2 10-2 13.1-3.1 2.3-7.2 2.3-10.3.3.3-.4.6-.7.9-1.1 2.9-4.1 2.7-9.6-.1-13.5 1 .2 3.1.9 4.1 3.1.2.4.5.6.9.6.1 0 .3 0 .4-.1.5-.2.7-.8.5-1.3-1.3-2.8-3.5-3.9-5-4.3zm-3.2-22.1c4.1 0 7.6 2.5 9 6.1-.5.1-1 .2-1.5.4-4.7 1.5-7.8 5.7-8.1 10.3h.2c.4 0 .8.1 1.2.2.2-4 2.7-7.7 6.6-9 5.1-1.7 10.5 1.2 12.1 6.4 1.3 4-.1 8.3-3.1 10.8-.2-.5-.5-.9-.8-1.3-2.9-4.2-8-5.8-12.5-4.6.1.4.2.8.2 1.3 0 2.1-1.7 3.7-3.7 3.7-1.2 0-2.3-.6-3-1.5-2.3 3.5-6.8 5.2-11 3.8-5-1.6-7.8-6.9-6.1-11.8 1.3-3.8 4.8-6.3 8.6-6.4-.1.5-.1 1-.1 1.5 0 5 3.3 9.2 7.8 10.7v-.1c0-.8.3-1.5.7-2.2-3.7-1.3-6.3-4.8-6.3-8.9.1-5.1 4.4-9.4 9.8-9.4zm-9.1 20.7c-.5-.3-1.1-.1-1.4.4-.3.5-.1 1.1.4 1.4 1.3.7 2.5.9 3.6.9 1.3 0 2.3-.3 3.1-.6-.4-.5-.7-1.2-.7-1.9-1.1.5-3 .9-5-.2zm15.7-6.6h-.1c-2.5.3-4.2 1.8-5.1 3.1.6.3 1.2.8 1.5 1.5.7-1 2-2.2 3.9-2.4.6-.1 1-.6.9-1.2-.1-.6-.6-1-1.2-.9l.1-.1zm-9.7-2.7c-.6-.1-1.1.3-1.2.8-.5 2.5.4 4.4 1.3 5.7.5-.5 1.1-.9 1.8-1-.7-1-1.4-2.5-1-4.3.1-.5-.3-1.1-.9-1.2z"/></g></g><g><path class="st1" d="M102.1-1323.9l-1.2-1.1h-.2l-1.2 1.1c-.1.1 0 .2.1.2h2.3c.2 0 .2-.1.2-.2zm1.4 1.9c.1 0 .2-.1.1-.2l-1.2-1.1h-.2l-1.2 1.1c-.1.1 0 .2.1.2h2.4zm-1.5-5.1c.1 0 .2-.1.1-.2l-1.2-1.1h-.2l-1.2 1.1c-.1.1 0 .2.1.2h2.4zm-.8 1.7h2.3c.1 0 .2-.1.1-.2l-1.2-1.1h-.2l-1.2 1.1c0 .1.1.2.2.2zm-20.3 3.4h10.8c.3 0 .4-.3.2-.5l-5.4-5.7c-.1-.1-.3-.1-.4 0l-5.4 5.7c-.2.1-.1.5.2.5zm17.3-3.4h2.3c.1 0 .2-.1.1-.2l-1.2-1.1h-.2l-1.2 1.1c.1.1.1.2.2.2zm-10.2-3.8h10.8c.3 0 .4-.3.2-.5l-5.4-5.7c-.1-.1-.3-.1-.4 0l-5.4 5.7c-.2.2 0 .5.2.5zm12.5 7l-1.2-1.1h-.2l-1.2 1.1c-.1.1 0 .2.1.2h2.3c.3 0 .3-.1.2-.2zm-26.8 7.8h10.8c.3 0 .4-.3.2-.5l-5.4-5.7c-.1-.1-.3-.1-.4 0l-5.4 5.7c-.2.1-.1.5.2.5zm28.9-9.3h2.3c.1 0 .2-.1.1-.2l-1.2-1.1h-.2l-1.2 1.1c.1.1.1.2.2.2zM99-1315l-5.4-5.7c-.1-.1-.3-.1-.4 0l-5.4 5.7c-.2.2-.1.5.2.5h10.8c.3.1.4-.3.2-.5zm.1-8.9l-1.2-1.1h-.2l-1.2 1.1c-.1.1 0 .2.1.2H99c.1 0 .2-.1.1-.2zm-3 .6l-1.2 1.1c-.1.1 0 .2.1.2h2.3c.1 0 .2-.1.1-.2l-1.2-1.1h-.1zm10.5 1.1l-1.1-1.1h-.2l-1.1 1.1c-.1.1 0 .2.1.2h2.2c.1 0 .1-.1.1-.2zm-27.3 15.9c-.1-.1-.3-.1-.4 0l-5.4 5.7c-.2.2-.1.5.2.5h10.8c.3 0 .4-.3.2-.5l-5.4-5.7zm-2.5-1.6l-5.3-5.4c-.1-.1-.3-.1-.4 0l-5.3 5.4c-.2.2-.1.5.2.5h10.5c.4 0 .5-.3.3-.5zm24-5.6c-.1-.1-.3-.1-.4 0l-5.4 5.7c-.2.2-.1.5.2.5H106c.3 0 .4-.3.2-.5l-5.4-5.7zm-7.2 7.2c-.1-.1-.3-.1-.4 0l-5.4 5.7c-.2.2-.1.5.2.5h10.8c.3 0 .4-.3.2-.5l-5.4-5.7zm-27.5-15.6h10.5c.3 0 .4-.3.2-.5l-5.3-5.5c-.1-.1-.3-.1-.4 0l-5.3 5.5c-.1.2 0 .5.3.5zm15.9-7.3h2.2c.1 0 .1-.1.1-.2l-1.1-1.1H83l-1.1 1.1c0 .1 0 .2.1.2zm-5-1.2l-1.2 1.1c-.1.1 0 .2.1.2h2.3c.1 0 .2-.1.1-.2l-1.2-1.1c0-.1-.1-.1-.1 0zm-1.9 1.2c.1 0 .2-.1.1-.2l-1.2-1.1h-.2l-1.2 1.1c-.1.1 0 .2.1.2h2.4zm3.8 0h2.3c.1 0 .2-.1.1-.2l-1.2-1.1h-.2l-1.2 1.1c.1.1.1.2.2.2zm-2.1-1.7c.1 0 .2-.1.1-.2l-1.2-1.1h-.2l-1.2 1.1c-.1.1 0 .2.1.2h2.4zm1.8-1.2h-.2l-1.2 1.1c-.1.1 0 .2.1.2h2.3c.1 0 .2-.1.1-.2l-1.1-1.1zm1.8 1.2h2.3c.1 0 .2-.1.1-.2l-1.2-1.1h-.2l-1.2 1.1c0 .1.1.2.2.2zm-1.5-1.7h2.3c.1 0 .2-.1.1-.2l-1.2-1.1h-.2l-1.2 1.1c.1.1.1.2.2.2zm-.6 0c.1 0 .2-.1.1-.2l-1.2-1.1H77l-1.2 1.1c-.1.1 0 .2.1.2h2.4zm1.4-1.7c.1 0 .2-.1.1-.2l-1.2-1.1h-.2l-1.2 1.1c-.1.1 0 .2.1.2h2.4zm12.3 26.9c.1 0 .1-.1.1-.2l-1.1-1.1h-.2l-1.1 1.1c-.1.1 0 .2.1.2H92zm-7.1-1.3h-.2l-1.2 1.1c-.1.1 0 .2.1.2h2.3c.1 0 .2-.1.1-.2l-1.1-1.1zm-2.1 1.3c.1 0 .2-.1.1-.2l-1.2-1.1h-.2l-1.2 1.1c-.1.1 0 .2.1.2h2.4zm6.3-.2l-1.2-1.1h-.2l-1.2 1.1c-.1.1 0 .2.1.2H89c.1 0 .1-.2.1-.2zm-4.5-1.7l-1.2-1.1h-.2l-1.2 1.1c-.1.1 0 .2.1.2h2.3c.2 0 .3-.2.2-.2zm2.9.2c.1 0 .2-.1.1-.2l-1.2-1.1h-.2l-1.2 1.1c-.1.1 0 .2.1.2h2.4zm2.9 0c.1 0 .2-.1.1-.2l-1.2-1.1h-.2l-1.2 1.1c-.1.1 0 .2.1.2h2.4zm-1.3-1.9l-1.2-1.1h-.2l-1.2 1.1c-.1.1 0 .2.1.2H89c.1 0 .1-.1.1-.2zm-3 0l-1.2-1.1h-.2l-1.2 1.1c-.1.1 0 .2.1.2H86c.1 0 .2-.1.1-.2zm1.5-1.7l-1.2-1.1h-.2l-1.2 1.1c-.1.1 0 .2.1.2h2.3c.2 0 .2-.1.2-.2z"/></g></g></svg>