<svg width="32" height="32" viewBox="0 0 32 32" version="1.1" xmlns="http://www.w3.org/2000/svg"><g id="Symbols" stroke="none" stroke-width="1" fill="none" fill-rule="evenodd"><g id="Icon-/-SNS-/-Instagram"><g id="Group-8"><circle id="Oval" fill="#D05BCD" cx="16" cy="16" r="16"/><path d="M15.034 8.174h1.872a41.74 41.74 0 012.35.048c.849.04 1.428.176 1.935.376a3.9 3.9 0 011.412.934c.443.45.715.902.92 1.435.196.515.33 1.104.37 1.966.035.792.046 1.09.047 2.829v1.022c-.001 1.739-.012 2.037-.048 2.829-.038.862-.173 1.45-.37 1.966a3.979 3.979 0 01-.92 1.434 3.88 3.88 0 01-1.411.934c-.507.2-1.086.338-1.935.377-.743.035-1.044.046-2.558.048h-1.456c-1.513-.002-1.814-.013-2.558-.048-.848-.04-1.428-.176-1.935-.377a3.897 3.897 0 01-1.411-.934 3.979 3.979 0 01-.92-1.434c-.197-.516-.331-1.104-.37-1.966a43.617 43.617 0 01-.047-2.389v-1.902c.003-1.357.015-1.669.047-2.389.039-.862.173-1.45.37-1.966a3.99 3.99 0 01.92-1.435 3.9 3.9 0 011.411-.934c.507-.2 1.087-.337 1.935-.376a41.74 41.74 0 012.35-.048h1.872zm1.679 1.459h-1.485c-1.462.002-1.748.013-2.478.047-.778.036-1.2.168-1.48.279a2.467 2.467 0 00-.917.605 2.51 2.51 0 00-.596.932c-.11.285-.239.714-.274 1.504a42.349 42.349 0 00-.046 2.339v1.868a42.61 42.61 0 00.046 2.339c.035.79.165 1.219.274 1.504a2.5 2.5 0 00.596.931c.28.284.545.46.917.606.28.111.702.243 1.48.28.767.035 1.044.045 2.706.046h1.029c1.662-.001 1.939-.011 2.706-.047.777-.036 1.199-.168 1.48-.279a2.46 2.46 0 00.916-.606 2.51 2.51 0 00.596-.931c.11-.285.24-.714.275-1.504.035-.783.045-1.063.046-2.77V15.77c-.001-1.707-.011-1.987-.046-2.77-.035-.79-.165-1.219-.275-1.504a2.51 2.51 0 00-.596-.932 2.469 2.469 0 00-.916-.605c-.281-.111-.703-.243-1.48-.28-.731-.033-1.017-.044-2.478-.046zm-.743 2.48c2.26 0 4.093 1.863 4.093 4.16s-1.832 4.16-4.093 4.16c-2.26 0-4.093-1.863-4.093-4.16s1.833-4.16 4.093-4.16zm0 1.46c-1.467 0-2.656 1.209-2.656 2.7s1.189 2.7 2.656 2.7 2.657-1.209 2.657-2.7-1.19-2.7-2.657-2.7zm4.255-2.596c.528 0 .956.435.956.972a.964.964 0 01-.956.972.964.964 0 01-.957-.972c0-.537.429-.972.957-.972z" id="Combined-Shape" fill="#FFF"/></g></g></g></svg>