<svg width="160" height="21" viewBox="0 0 160 21" version="1.1" xmlns="http://www.w3.org/2000/svg"><g id="01_Top" stroke="none" stroke-width="1" fill="none" fill-rule="evenodd"><g id="Top_SP" transform="translate(-98 -7896)"><g id="Global-/-Footer-/-SP" transform="translate(0 7503)"><g id="Group-14" transform="translate(15 281)"><g id="logo_Is-japan-cool" transform="translate(83 112)"><g id="Image-/-Logo-/-is-japan-cool-/-Hovered"><g id="Group" fill-rule="nonzero"><path d="M40 10.858c0 5.428-4.381 9.713-9.714 9.713a9.694 9.694 0 01-9.715-9.713c0-5.428 4.381-9.714 9.715-9.714C35.619 1.05 40 5.43 40 10.858z" id="Path" fill="#FF4600"/><path d="M49.563.178v15.317c0 2.94-2.207 5.076-5.241 5.076-.07 0-.19-.05-.285-.075l-.083-.014v-3.384h.46c.354 0 1.476-.165 1.558-1.847l.005-.2V.177h3.586zM109.057 0c2.776 0 4.854 2.026 4.877 4.764l-.003.223v1.425h-3.494V5.165c0-.801-.368-1.692-1.38-1.692-.965 0-1.344.487-1.377 1.77l-.002.19v9.884c0 1.692 1.012 1.692 1.38 1.692.44 0 1.387-.082 1.466-1.42l.005-.183V14.16h3.494v1.513c0 2.672-2.207 4.81-4.874 4.81-1.17 0-4.9-.342-5.052-4.626l-.005-.273V4.81c0-2.76 2.115-4.809 4.965-4.809zm11.863 0c2.508 0 5.017 1.69 5.144 4.826l.005.25v10.33c0 3.295-2.575 5.076-5.15 5.076-2.508 0-5.017-1.606-5.144-4.819l-.005-.257V5.076c0-3.295 2.575-5.076 5.15-5.076zm12.046 0c2.508 0 5.017 1.69 5.144 4.826l.005.25v10.33c0 3.295-2.575 5.076-5.15 5.076-2.508 0-5.017-1.606-5.144-4.819l-.005-.257V5.076c0-3.295 2.575-5.076 5.15-5.076zM10.575 0c3.133 0 5.047 2.364 5.06 4.544l-.003.176v1.692h-3.494v-.98c0-.98-.276-2.048-1.655-2.048-.644 0-1.563.267-1.563 2.226 0 1.451.084 1.839 1.224 2.26l.155.056 2.207.89c2.666.98 3.218 2.761 3.218 5.61 0 4.988-2.85 6.056-5.241 6.056-2.957 0-5.128-2.029-5.237-4.769l-.005-.218V14.16h3.495v1.246c0 .535.184 1.692 1.655 1.692 1.563 0 1.747-.712 1.747-2.582 0-1.975-.257-2.211-1.347-2.625l-.124-.047-2.023-.801C5.7 9.885 5.334 7.748 5.334 5.699 5.333 2.226 7.447 0 10.573 0zm79.172.178l3.77 10.33V.178h3.494v20.126h-3.218l-3.862-10.33v10.33h-3.494V.178h3.31zm53.701 0v16.653h5.61v3.473h-9.196V.178h3.586zM3.494.178v20.126H0V.178h3.494zm54.345 0l.092.267 4.598 19.86h-3.586l-.46-2.049h-4.23l-.368 2.048H50.3L54.897.178h2.942zm22.713 0l.092.267 4.505 19.86h-3.586l-.368-2.049h-4.23l-.367 2.048H73.01L77.61.178h2.943zm76.597 16.653v3.473h-3.494v-3.473h3.494zM68.598.178c2.574 0 5.15 1.781 5.15 5.076v4.81c0 3.294-2.576 5.075-5.15 5.075H67.31v5.165h-3.494V.178zm52.322 3.295c-.956 0-1.501.477-1.559 1.43l-.005.173v10.33c0 .98.552 1.603 1.564 1.603.955 0 1.5-.476 1.558-1.43l.005-.173V5.076c0-.98-.552-1.603-1.563-1.603zm12.046 0c-.956 0-1.501.477-1.559 1.43l-.005.173v10.33c0 .98.552 1.603 1.564 1.603.955 0 1.5-.476 1.558-1.43l.005-.173V5.076c0-.98-.552-1.603-1.563-1.603zm27.03 1.152l.004.273v1.514c0 .986-.157 1.517-.398 2.014l-.062.123-1.93 3.206a2.151 2.151 0 00-.452 1.08l-.009.167v2.137h-3.494v-2.493c0-.713.218-1.425.59-2.138l.146-.267 1.747-2.85c.163-.237.254-.686.272-1.158l.004-.177v-.89c0-1.563-.862-1.683-1.284-1.692h-.156c-.46.009-1.33.14-1.406 1.42l-.005.182v1.247h-3.494V4.809c0-2.672 2.207-4.809 4.874-4.809 1.17 0 4.9.342 5.052 4.625zM56.367 7.66l-.92 5.165-.46 2.137h2.851l-.46-2.137-1.011-5.165zm22.712 0l-.92 5.165-.459 2.137h2.85l-.459-2.137-1.012-5.165zM68.69 3.65h-1.288v8.015h1.288c1.011 0 1.563-.534 1.563-1.603V5.254c0-.98-.552-1.603-1.563-1.603z" id="Combined-Shape" fill="#1A1A1A"/></g></g></g></g></g></g></g></svg>