<svg version="1.1" id="レイヤー_1" xmlns="http://www.w3.org/2000/svg" x="0" y="0" viewBox="0 0 144 16" xml:space="preserve"><path id="JapanTravelPlanner" d="M3.3 8.1V1.2h2v7c0 3-1.4 4-3.6 4-.5 0-1.2-.1-1.6-.3l.2-1.6c.3.1.8.2 1.2.2 1.1 0 1.8-.5 1.8-2.4zM13.5 12h-1.8l-.1-.9c-.5.6-1.3 1-2.3 1-1.6 0-2.4-1.1-2.4-2.3 0-2 1.7-3 4.6-2.9v-.1c0-.5-.2-1.4-1.6-1.4-.8 0-1.6.3-2.2.6l-.4-1.3c.6-.3 1.6-.7 2.9-.7 2.5 0 3.2 1.6 3.2 3.3v2.8c0 .7 0 1.4.1 1.9zm-2-2.7V8.2c-1.4 0-2.7.3-2.7 1.5 0 .8.5 1.1 1.1 1.1.8 0 1.4-.5 1.5-1.1 0-.1.1-.3.1-.4zm4 5.9V6.8c0-1 0-1.9-.1-2.6h1.7l.1 1.2c.6-.9 1.5-1.4 2.7-1.4 1.8 0 3.3 1.5 3.3 4 0 2.8-1.8 4.2-3.6 4.2-1 0-1.8-.4-2.2-1v4h-1.9zm1.9-7.7v1.2c0 .2 0 .4.1.5.2.8.9 1.4 1.7 1.4 1.2 0 2-1 2-2.6 0-1.4-.7-2.5-1.9-2.5-.8 0-1.6.6-1.8 1.5 0 .2-.1.4-.1.5zM31 12h-1.8l-.1-.9c-.5.6-1.3 1-2.3 1-1.6 0-2.4-1.1-2.4-2.3 0-2 1.7-3 4.6-2.9v-.1c0-.5-.2-1.4-1.6-1.4-.8 0-1.6.2-2.1.6l-.4-1.3c.5-.3 1.5-.7 2.7-.7 2.5 0 3.2 1.6 3.2 3.3v2.8c.1.7.1 1.4.2 1.9zm-2.1-2.7V8.2c-1.4 0-2.7.3-2.7 1.5 0 .8.5 1.1 1.1 1.1.8 0 1.4-.5 1.5-1.1.1-.1.1-.3.1-.4zm4 2.7V6.5c0-.9 0-1.6-.1-2.3h1.7l.1 1.2c.5-.6 1.3-1.4 2.6-1.4 1.4 0 2.8.9 2.8 3.4V12h-2V7.6c0-1.1-.4-2-1.5-2-.8 0-1.3.6-1.5 1.2-.1.2-.1.4-.1.6V12h-2zm14.7 0V2.9h-3.1V1.2h8.1v1.6h-3.1V12h-1.9zm6.2 0V6.7c0-1.1 0-1.8-.1-2.5h1.7l.1 1.5h.1C56 4.6 56.9 4 57.7 4h.5v1.9c-.2 0-.3-.1-.6-.1-.9 0-1.6.6-1.8 1.5 0 .2-.1.4-.1.6v4h-1.9zm11.9 0h-1.8l-.1-.9c-.5.6-1.3 1-2.3 1-1.6 0-2.4-1.1-2.4-2.3 0-2 1.7-3 4.6-2.9v-.1c0-.5-.2-1.4-1.6-1.4-.8 0-1.6.2-2.1.6l-.4-1.3c.5-.3 1.5-.7 2.7-.7 2.5 0 3.2 1.6 3.2 3.3v2.8c.1.7.1 1.4.2 1.9zm-2.1-2.7V8.2c-1.4 0-2.7.3-2.7 1.5 0 .8.5 1.1 1.1 1.1.8 0 1.4-.5 1.5-1.1.1-.1.1-.3.1-.4zm3.2-5.1h2.1l1.3 4c.2.7.4 1.3.5 2 .1-.6.3-1.2.5-2l1.2-4h2.1l-3 7.8h-1.9l-2.8-7.8zm15.6 4.5h-5.2c0 1.4 1.2 2 2.4 2 .9 0 1.6-.1 2.2-.4l.3 1.4c-.7.3-1.6.5-2.7.5-2.5 0-4-1.6-4-3.9 0-2.2 1.3-4.2 3.8-4.2s3.4 2.1 3.4 3.8c-.2.3-.2.6-.2.8zm-5.2-1.4h3.4c0-.7-.3-1.9-1.6-1.9s-1.8 1.1-1.8 1.9zM84 12V.6h2V12h-2zm7.5 0V1.4c.7-.1 1.7-.2 3-.2 1.5-.1 2.5.2 3.2.8.6.5 1.1 1.4 1.1 2.4s-.3 1.9-.9 2.4c-.8.8-2 1.2-3.4 1.2-.4 0-.7 0-1-.1V12h-2zm2-9.3v3.6c.2.1.6.1 1 .1 1.5 0 2.4-.7 2.4-2 0-1.2-.8-1.8-2.2-1.8-.6 0-1 .1-1.2.1zm6.9 9.3V.6h2V12h-2zm10.3 0h-1.8l-.1-.9c-.5.6-1.3 1-2.3 1-1.6 0-2.4-1.1-2.4-2.3 0-2 1.7-3 4.6-2.9v-.1c0-.5-.2-1.4-1.6-1.4-.8 0-1.6.2-2.1.6l-.4-1.3c.6-.4 1.6-.7 2.8-.7 2.5 0 3.2 1.6 3.2 3.3v2.8c-.1.7 0 1.4.1 1.9zm-2.1-2.7V8.2c-1.4 0-2.7.3-2.7 1.5 0 .8.5 1.1 1.1 1.1.8 0 1.4-.5 1.5-1.1.1-.1.1-.3.1-.4zm4 2.7V6.5c0-.9 0-1.6-.1-2.3h1.7l.1 1.2c.3-.6 1.2-1.3 2.5-1.3 1.4 0 2.8.9 2.8 3.3V12h-2V7.6c0-1.1-.4-2-1.5-2-.8 0-1.3.6-1.5 1.2-.1.2-.1.4-.1.6V12h-1.9zm9.2 0V6.5c0-.9 0-1.6-.1-2.3h1.7l.1 1.2c.3-.6 1.2-1.3 2.5-1.3 1.4 0 2.8.9 2.8 3.3V12h-2V7.6c0-1.1-.4-2-1.5-2-.8 0-1.3.6-1.5 1.2-.1.2-.1.4-.1.6V12h-1.9zm15.7-3.3h-5.2c0 1.4 1.2 2 2.4 2 .9 0 1.6-.1 2.2-.4l.3 1.4c-.7.3-1.6.5-2.7.5-2.5 0-4-1.6-4-3.9 0-2.2 1.3-4.2 3.8-4.2s3.4 2.1 3.4 3.8c-.1.3-.1.6-.2.8zm-5.2-1.4h3.4c0-.7-.3-1.9-1.6-1.9-1.2 0-1.7 1.1-1.8 1.9zm6.9 4.7V6.7c0-1.1 0-1.8-.1-2.5h1.7l.1 1.5h.1c.4-1.1 1.3-1.7 2.1-1.7h.5v1.9c-.2 0-.3-.1-.6-.1-.9 0-1.6.6-1.8 1.5 0 .2-.1.4-.1.6v4h-1.9z" fill="#0b3290"/></svg>