<svg version="1.1" id="レイヤー_1" xmlns="http://www.w3.org/2000/svg" x="0" y="0" viewBox="0 0 65 23" xml:space="preserve"><path d="M2.5 6.3V1.1H4v5.2c0 2.2-1.1 3-2.7 3-.5 0-1 0-1.3-.2L.2 8c.2 0 .6.1.9.1.8 0 1.4-.4 1.4-1.8zm7.6 2.9H8.8l-.1-.6c-.4.4-1 .7-1.8.7-1.2 0-1.8-.9-1.8-1.7 0-1.5 1.3-2.2 3.5-2.2v-.1c0-.4-.2-1-1.2-1-.6 0-1.2.2-1.6.4l-.3-1c.4-.3 1.2-.5 2.1-.5 1.9 0 2.4 1.2 2.4 2.5v2.1c0 .5.1 1 .1 1.4zM8.6 7.1v-.8c-1 0-2 .2-2 1.1 0 .6.4.8.8.8.6 0 1-.4 1.2-.8v-.3zm3 4.5V3.4h1.3l.1.9c.4-.7 1.1-1 2-1 1.3 0 2.5 1.2 2.5 3 0 2.1-1.3 3.1-2.7 3.1-.7 0-1.3-.3-1.6-.8v3h-1.6zm1.5-5.7v1.3c.1.6.7 1 1.3 1 .9 0 1.5-.8 1.5-1.9 0-1-.5-1.9-1.5-1.9-.6 0-1.2.4-1.3 1.1v.4zm10.1 3.3h-1.3l-.1-.6c-.4.5-1 .8-1.7.8-1.2 0-1.8-.9-1.8-1.7 0-1.5 1.3-2.2 3.5-2.2v-.2c0-.4-.2-1-1.2-1-.6 0-1.2.2-1.6.4l-.3-1c.4-.3 1.2-.5 2.1-.5 1.9 0 2.4 1.2 2.4 2.5v2.1c-.1.5 0 1 0 1.4zm-1.5-2.1v-.8c-1 0-2 .2-2 1.1 0 .6.4.8.8.8.6 0 1-.4 1.2-.8v-.3zm3 2.1V3.4H26v.8c.3-.5.9-1 1.9-1 1 0 2.1.7 2.1 2.5v3.5h-1.5V5.9c0-.8-.3-1.5-1.1-1.5-.6 0-1 .4-1.2.9 0 .1-.1.3-.1.5v3.4h-1.4zm11 0V2.3h-2.3V1.1h6.1v1.2h-2.3v6.9h-1.5zm4.7 0V3.3h1.3v1.1c.3-.8 1-1.2 1.6-1.2h.3v1.4h-.4c-.7 0-1.2.5-1.3 1.1v3.5h-1.5zm8.8 0h-1.3l-.1-.6c-.4.5-1 .8-1.7.8-1.2 0-1.8-.9-1.8-1.7 0-1.5 1.3-2.2 3.5-2.2v-.2c0-.4-.2-1-1.2-1-.6 0-1.2.2-1.6.4l-.3-1c.4-.3 1.2-.5 2.1-.5 1.9 0 2.4 1.2 2.4 2.5v3.5zm-1.5-2.1v-.8c-1 0-2 .2-2 1.1 0 .6.4.8.8.8.6 0 1-.4 1.2-.8v-.3zm2.4-3.7h1.6l.9 3c.2.5.3 1 .4 1.5.1-.5.2-.9.4-1.5l.9-3h1.6l-2.2 5.8h-1.5l-2.1-5.8zm11.7 3.3h-3.9c0 1.1.9 1.5 1.8 1.5.7 0 1.2-.1 1.6-.3l.2 1c-.5.2-1.2.4-2 .4-1.9 0-3-1.2-3-3 0-1.6 1-3.1 2.9-3.1s2.5 1.6 2.5 2.8c-.1.3-.1.6-.1.7zm-3.9-1h2.6c0-.5-.2-1.4-1.2-1.4-1-.1-1.4.8-1.4 1.4zM63 9.2V.7h1.5v8.5H63zM.9 22.4v-8c.5-.1 1.3-.2 2.3-.2 1.1 0 1.9.2 2.4.7.5.4.8 1 .8 1.8s-.2 1.4-.7 1.8c-.7.6-1.6.9-2.7.9h-.7v3H.9zm1.4-6.9v2.7c.2 0 .4.1.7.1 1.1 0 1.8-.5 1.8-1.5 0-.9-.6-1.4-1.6-1.4-.4 0-.7 0-.9.1zm5.2 6.9v-8.5H9v8.5H7.5zm7.7 0h-1.3l-.1-.6c-.4.5-1 .8-1.7.8-1.2 0-1.8-.9-1.8-1.7 0-1.5 1.3-2.2 3.5-2.2v-.1c0-.4-.2-1-1.2-1-.6 0-1.2.2-1.6.4l-.3-1c.4-.3 1.2-.5 2.1-.5 1.9 0 2.4 1.2 2.4 2.5v2c-.1.5-.1 1 0 1.4zm-1.5-2.1v-.8c-1 0-2 .2-2 1.1 0 .6.4.8.8.8.6 0 1-.4 1.2-.8v-.3zm3 2.1v-5.8H18l.1.9c.3-.5.9-1 1.9-1 1 0 2.1.7 2.1 2.5v3.5h-1.5v-3.3c0-.8-.3-1.5-1.1-1.5-.6 0-1 .4-1.2.9 0 .1-.1.3-.1.5v3.4h-1.5zm6.8 0v-5.8h1.3l.1.9c.3-.5.9-1 1.9-1 1 0 2.1.7 2.1 2.5v3.5h-1.5v-3.3c0-.8-.3-1.5-1.1-1.5-.6 0-1 .4-1.2.9 0 .1-.1.3-.1.5v3.4h-1.5zm11.9-2.5h-3.9c0 1.1.9 1.5 1.8 1.5.7 0 1.2-.1 1.6-.3l.2 1c-.5.2-1.2.4-2 .4-1.9 0-3-1.2-3-3 0-1.6 1-3.1 2.9-3.1s2.5 1.6 2.5 2.8c-.1.3-.1.6-.1.7zm-3.9-1H34c0-.5-.2-1.4-1.2-1.4-.9-.1-1.3.8-1.3 1.4zm5.1 3.5v-5.9h1.3v1.1c.3-.8 1-1.2 1.6-1.2h.3v1.4h-.4c-.7 0-1.2.5-1.3 1.1v3.5h-1.5z" fill="#0b3290"/></svg>