<svg id="レイヤー_1" data-name="レイヤー 1" xmlns="http://www.w3.org/2000/svg" width="32" height="32" viewBox="0 0 32 32"><circle cx="16" cy="16" r="16"/><path d="M20.348 13.187a8 8 0 004.668 1.493v-3.349a4.679 4.679 0 01-.98-.1v2.636a8 8 0 01-4.668-1.494V19.2a6.193 6.193 0 01-9.639 5.142 6.193 6.193 0 0010.619-4.327v-6.828zm1.209-3.378a4.672 4.672 0 01-1.209-2.732v-.431h-.929a4.69 4.69 0 002.138 3.163zm-9.666 11.914a2.834 2.834 0 013.114-4.412v-3.423a6.289 6.289 0 00-.98-.056V16.5a2.832 2.832 0 00-2.134 5.227z" fill-rule="evenodd" fill="#ee1d52"/><path d="M19.368 12.371a8 8 0 004.668 1.494v-2.636a4.687 4.687 0 01-2.479-1.42 4.69 4.69 0 01-2.138-3.163h-2.44v13.373a2.834 2.834 0 01-5.088 1.7 2.832 2.832 0 012.134-5.219v-2.668a6.188 6.188 0 00-4.3 10.514 6.193 6.193 0 009.643-5.146z" fill="#fff" fill-rule="evenodd"/><path d="M24.036 11.229v-.713a4.673 4.673 0 01-2.479-.707 4.685 4.685 0 002.479 1.42zm-4.617-4.583a4.504 4.504 0 01-.051-.385v-.43H16V19.2a2.834 2.834 0 01-4.107 2.519 2.834 2.834 0 005.088-1.7V6.646zm-5.394 7.186v-.759a6.189 6.189 0 00-4.3 11.273 6.188 6.188 0 014.3-10.514z" fill="#69c9d0" fill-rule="evenodd"/></svg>